<svg id="SvgjsSvg1001" width="288" height="288" xmlns="http://www.w3.org/2000/svg" version="1.1" xmlns:xlink="http://www.w3.org/1999/xlink" xmlns:svgjs="http://svgjs.com/svgjs"><defs id="SvgjsDefs1002"></defs><g id="SvgjsG1008" transform="matrix(0.9167,0,0,0.9167,11.995200000000011,11.995200000000011)"><svg xmlns="http://www.w3.org/2000/svg" data-name="Layer 1" viewBox="0 0 24 24" width="288" height="288"><path fill="#1216db" d="M16.5,22h-9a3,3,0,0,1-3-3V5a3,3,0,0,1,3-3h6.59a1,1,0,0,1,.7.29l4.42,4.42a1,1,0,0,1,.29.7V19A3,3,0,0,1,16.5,22Z" class="color757575 svgShape"></path><path fill="#bdbdbd" d="M18.8,7.74H15.2a1.5,1.5,0,0,1-1.5-1.5V2.64a.55.55,0,0,1,.94-.39L19.19,6.8A.55.55,0,0,1,18.8,7.74Z" class="colorbdbdbd svgShape"></path><path fill="#f5f5f5" d="M16 12.65H8a.5.5 0 01-.5-.5.5.5 0 01.5-.5h8a.5.5 0 01.5.5A.5.5 0 0116 12.65zM16 15.5H8a.5.5 0 010-1h8a.5.5 0 010 1zM16 18.35H8a.5.5 0 01-.5-.5.5.5 0 01.5-.5h8a.5.5 0 01.5.5A.5.5 0 0116 18.35z" class="colorf5f5f5 svgShape"></path></svg></g></svg>